<svg xmlns="http://www.w3.org/2000/svg" width="512" height="512" viewBox="0 0 512 512">
  <g fill="none" fill-rule="evenodd">
    <circle cx="256" cy="256" r="256" fill="#FF6B6B"/>
    <path fill="#3B3B3B" fill-rule="nonzero" d="M164.806097,125.954299 C162.911018,126.138935 161.17275,127.087677 159.991617,128.582027 L103.968582,198.654524 C102.975773,199.897953 102.435518,201.4425 102.436702,203.034046 L102.436702,336.281281 C102.401022,338.808324 103.727904,341.158837 105.909269,342.432778 C108.090634,343.706718 110.788529,343.706718 112.969894,342.432778 C115.151259,341.158837 116.478142,338.808324 116.442461,336.281281 L116.442461,297.631986 L396.557637,297.631986 L396.557637,364.200753 C396.557637,368.204115 393.555565,371.208213 389.554757,371.208213 L123.445341,371.208213 C119.444529,371.208213 116.442461,368.204115 116.442461,364.200753 C116.478142,361.67371 115.151259,359.323197 112.969894,358.049257 C110.788529,356.775316 108.090634,356.775316 105.909269,358.049257 C103.727904,359.323197 102.401022,361.67371 102.436702,364.200753 C102.436702,375.725222 111.927657,385.222783 123.445341,385.222783 L389.554757,385.222783 C401.072442,385.222783 410.563396,375.725222 410.563396,364.200753 L410.563396,203.034046 C410.56458,201.4425 410.024325,199.897953 409.031516,198.654524 L353.008481,128.582027 C351.678457,126.919948 349.665396,125.953073 347.537481,125.954299 L165.462617,125.954299 C165.243897,125.94403 165.024817,125.94403 164.806097,125.954299 L164.806097,125.954299 Z M168.854637,139.968799 L344.145461,139.968799 L389.007658,196.026796 L123.99244,196.026796 L168.854637,139.968799 Z M116.442461,210.041331 L396.557637,210.041331 L396.557637,283.617417 L116.442461,283.617417 L116.442461,210.041331 Z M256.500049,222.304 C243.04645,222.304 231.989971,233.367308 231.989971,246.829374 C231.989971,260.291335 243.046415,271.354713 256.500049,271.354713 C269.953683,271.354713 281.010127,260.291335 281.010127,246.829374 C281.010127,233.367308 269.953648,222.304 256.500049,222.304 Z M256.500049,236.318499 C262.384362,236.318499 267.004368,240.941145 267.004368,246.829374 C267.004368,252.717672 262.384327,257.340143 256.500049,257.340143 C250.615771,257.340143 245.99573,252.717672 245.99573,246.829374 C245.99573,240.941145 250.615736,236.318499 256.500049,236.318499 Z M256.500049,309.894691 C243.046415,309.894691 231.989971,320.958069 231.989971,334.4201 C231.989971,347.882481 243.046415,358.945509 256.500049,358.945509 C269.953683,358.945509 281.010127,347.882481 281.010127,334.4201 C281.010127,320.958069 269.953683,309.894691 256.500049,309.894691 L256.500049,309.894691 Z M256.500049,323.90926 C262.384327,323.90926 267.004368,328.532082 267.004368,334.4201 C267.004368,340.308118 262.384327,344.930939 256.500049,344.930939 C250.615771,344.930939 245.99573,340.308118 245.99573,334.4201 C245.99573,328.532082 250.615771,323.90926 256.500049,323.90926 L256.500049,323.90926 Z"/>
  </g>
</svg>
